<svg width="32" height="32" fill="none" xmlns="http://www.w3.org/2000/svg"><g clip-path="url(#clip0)"><path d="M12.334 12.333l2-2.333h3.333l2.334 3-1 3-3 1.333-3-1.666-.667-3.334z" fill="#fff"/><path fill-rule="evenodd" clip-rule="evenodd" d="M13.334 4.333l6.667 1 4.333 4.334.667 4.667-1.667 5.333-4 5.666-3.333 2.334-6.334-6-3.333-9.334 2.667-5.666 4.333-2.333zm1 5.667l-2 2.334.667 3.333 3 1.667L19 16l1-3-2.334-3h-3.333z" fill="#EE7656"/><path fill-rule="evenodd" clip-rule="evenodd" d="M16 5.333a8 8 0 00-8 8c0 1.37.486 2.903 1.31 4.49.817 1.577 1.922 3.122 3.053 4.496a43.039 43.039 0 003.638 3.878 43.039 43.039 0 003.638-3.878c1.13-1.374 2.236-2.919 3.053-4.495.823-1.588 1.309-3.12 1.309-4.49a8 8 0 00-8-8zM16 28l-.868 1.012-.002-.003-.007-.006-.023-.02a42.118 42.118 0 01-1.49-1.383 45.699 45.699 0 01-3.306-3.585c-1.202-1.46-2.43-3.164-3.363-4.963-.927-1.787-1.608-3.755-1.608-5.718 0-5.89 4.776-10.666 10.667-10.666 5.89 0 10.666 4.775 10.666 10.666 0 1.963-.681 3.931-1.608 5.718-.932 1.799-2.16 3.503-3.362 4.963a45.699 45.699 0 01-4.71 4.895 12.29 12.29 0 01-.085.074l-.024.02-.006.006-.002.002s-.002.001-.87-1.011zm0 0l-.868 1.012c.5.428 1.237.428 1.736 0L16.001 28zm0-17.334A2.667 2.667 0 1016 16a2.667 2.667 0 000-5.334zm-5.333 2.667a5.333 5.333 0 1110.667 0 5.333 5.333 0 01-10.667 0z" fill="#EE7656"/></g><defs><clipPath id="clip0"><path fill="#fff" d="M0 0h32v32H0z"/></clipPath></defs></svg>